<mxfile host="app.diagrams.net" modified="2022-02-26T01:38:33.081Z" agent="5.0 (Windows NT 10.0; Win64; x64) AppleWebKit/537.36 (KHTML, like Gecko) Chrome/98.0.4758.102 Safari/537.36" etag="YimH6BAH3QHwpM8veMOF" version="16.6.4" type="github">
  <diagram id="L8yttka49a5zq2PXArLR" name="Page-1">
    <mxGraphModel dx="1422" dy="762" grid="1" gridSize="10" guides="1" tooltips="1" connect="1" arrows="1" fold="1" page="1" pageScale="1" pageWidth="850" pageHeight="1100" math="0" shadow="0">
      <root>
        <mxCell id="0" />
        <mxCell id="1" parent="0" />
        <mxCell id="4B6Cr-e_8SEEq3zloxiN-1" value="" style="fontColor=#0066CC;verticalAlign=top;verticalLabelPosition=bottom;labelPosition=center;align=center;html=1;outlineConnect=0;fillColor=#CCCCCC;strokeColor=#6881B3;gradientColor=none;gradientDirection=north;strokeWidth=2;shape=mxgraph.networks.laptop;" vertex="1" parent="1">
          <mxGeometry x="30" y="430" width="100" height="55" as="geometry" />
        </mxCell>
        <mxCell id="4B6Cr-e_8SEEq3zloxiN-2" value="" style="endArrow=none;html=1;rounded=0;" edge="1" parent="1">
          <mxGeometry relative="1" as="geometry">
            <mxPoint x="79.5" y="430" as="sourcePoint" />
            <mxPoint x="79.5" y="320" as="targetPoint" />
          </mxGeometry>
        </mxCell>
        <mxCell id="4B6Cr-e_8SEEq3zloxiN-3" style="edgeStyle=orthogonalEdgeStyle;rounded=0;orthogonalLoop=1;jettySize=auto;html=1;fontSize=14;" edge="1" parent="1" source="4B6Cr-e_8SEEq3zloxiN-4" target="4B6Cr-e_8SEEq3zloxiN-38">
          <mxGeometry relative="1" as="geometry" />
        </mxCell>
        <mxCell id="4B6Cr-e_8SEEq3zloxiN-4" value="" style="html=1;outlineConnect=0;fillColor=#CCCCCC;strokeColor=#6881B3;gradientColor=none;gradientDirection=north;strokeWidth=2;shape=mxgraph.networks.cloud;fontColor=#ffffff;" vertex="1" parent="1">
          <mxGeometry x="40" y="270" width="90" height="50" as="geometry" />
        </mxCell>
        <mxCell id="4B6Cr-e_8SEEq3zloxiN-5" value="" style="whiteSpace=wrap;html=1;aspect=fixed;fillColor=none;" vertex="1" parent="1">
          <mxGeometry x="240" y="190" width="560" height="560" as="geometry" />
        </mxCell>
        <mxCell id="4B6Cr-e_8SEEq3zloxiN-6" value="" style="fontColor=#0066CC;verticalAlign=top;verticalLabelPosition=bottom;labelPosition=center;align=center;html=1;outlineConnect=0;fillColor=#CCCCCC;strokeColor=#6881B3;gradientColor=none;gradientDirection=north;strokeWidth=2;shape=mxgraph.networks.firewall;" vertex="1" parent="1">
          <mxGeometry x="280" y="245" width="100" height="100" as="geometry" />
        </mxCell>
        <mxCell id="4B6Cr-e_8SEEq3zloxiN-7" style="edgeStyle=orthogonalEdgeStyle;rounded=0;orthogonalLoop=1;jettySize=auto;html=1;entryX=1;entryY=1;entryDx=0;entryDy=0;entryPerimeter=0;" edge="1" parent="1" source="4B6Cr-e_8SEEq3zloxiN-8" target="4B6Cr-e_8SEEq3zloxiN-35">
          <mxGeometry relative="1" as="geometry" />
        </mxCell>
        <mxCell id="4B6Cr-e_8SEEq3zloxiN-8" value="" style="fontColor=#0066CC;verticalAlign=top;verticalLabelPosition=bottom;labelPosition=center;align=center;html=1;outlineConnect=0;fillColor=#CCCCCC;strokeColor=#6881B3;gradientColor=none;gradientDirection=north;strokeWidth=2;shape=mxgraph.networks.proxy_server;" vertex="1" parent="1">
          <mxGeometry x="280" y="370" width="105" height="105" as="geometry" />
        </mxCell>
        <mxCell id="4B6Cr-e_8SEEq3zloxiN-9" value="" style="fontColor=#0066CC;verticalAlign=top;verticalLabelPosition=bottom;labelPosition=center;align=center;html=1;outlineConnect=0;fillColor=#CCCCCC;strokeColor=#6881B3;gradientColor=none;gradientDirection=north;strokeWidth=2;shape=mxgraph.networks.load_balancer;" vertex="1" parent="1">
          <mxGeometry x="567.5" y="290" width="100" height="30" as="geometry" />
        </mxCell>
        <mxCell id="4B6Cr-e_8SEEq3zloxiN-10" value="" style="fontColor=#0066CC;verticalAlign=top;verticalLabelPosition=bottom;labelPosition=center;align=center;html=1;outlineConnect=0;fillColor=#CCCCCC;strokeColor=#6881B3;gradientColor=none;gradientDirection=north;strokeWidth=2;shape=mxgraph.networks.server;" vertex="1" parent="1">
          <mxGeometry x="490" y="370" width="90" height="100" as="geometry" />
        </mxCell>
        <mxCell id="4B6Cr-e_8SEEq3zloxiN-11" value="" style="fontColor=#0066CC;verticalAlign=top;verticalLabelPosition=bottom;labelPosition=center;align=center;html=1;outlineConnect=0;fillColor=#CCCCCC;strokeColor=#6881B3;gradientColor=none;gradientDirection=north;strokeWidth=2;shape=mxgraph.networks.server;" vertex="1" parent="1">
          <mxGeometry x="620" y="370" width="90" height="100" as="geometry" />
        </mxCell>
        <mxCell id="4B6Cr-e_8SEEq3zloxiN-12" value="" style="whiteSpace=wrap;html=1;aspect=fixed;fillColor=none;" vertex="1" parent="1">
          <mxGeometry x="480" y="345" width="275" height="275" as="geometry" />
        </mxCell>
        <mxCell id="4B6Cr-e_8SEEq3zloxiN-13" value="" style="line;strokeWidth=1;rotatable=0;dashed=0;labelPosition=right;align=left;verticalAlign=middle;spacingTop=0;spacingLeft=6;points=[];portConstraint=eastwest;fillColor=none;" vertex="1" parent="1">
          <mxGeometry x="130" y="300" width="170" height="10" as="geometry" />
        </mxCell>
        <mxCell id="4B6Cr-e_8SEEq3zloxiN-14" value="" style="line;strokeWidth=1;rotatable=0;dashed=0;labelPosition=right;align=left;verticalAlign=middle;spacingTop=0;spacingLeft=6;points=[];portConstraint=eastwest;fillColor=none;" vertex="1" parent="1">
          <mxGeometry x="380" y="300" width="190" height="10" as="geometry" />
        </mxCell>
        <mxCell id="4B6Cr-e_8SEEq3zloxiN-15" value="" style="endArrow=none;html=1;rounded=0;" edge="1" parent="1" target="4B6Cr-e_8SEEq3zloxiN-9">
          <mxGeometry relative="1" as="geometry">
            <mxPoint x="540" y="380" as="sourcePoint" />
            <mxPoint x="640" y="370" as="targetPoint" />
            <Array as="points">
              <mxPoint x="530" y="380" />
            </Array>
          </mxGeometry>
        </mxCell>
        <mxCell id="4B6Cr-e_8SEEq3zloxiN-16" value="" style="endArrow=none;html=1;rounded=0;" edge="1" parent="1" source="4B6Cr-e_8SEEq3zloxiN-9">
          <mxGeometry relative="1" as="geometry">
            <mxPoint x="530" y="380" as="sourcePoint" />
            <mxPoint x="690" y="380" as="targetPoint" />
          </mxGeometry>
        </mxCell>
        <mxCell id="4B6Cr-e_8SEEq3zloxiN-17" value="" style="endArrow=none;html=1;rounded=0;" edge="1" parent="1" source="4B6Cr-e_8SEEq3zloxiN-8" target="4B6Cr-e_8SEEq3zloxiN-6">
          <mxGeometry relative="1" as="geometry">
            <mxPoint x="190" y="380" as="sourcePoint" />
            <mxPoint x="350" y="380" as="targetPoint" />
          </mxGeometry>
        </mxCell>
        <mxCell id="4B6Cr-e_8SEEq3zloxiN-18" value="" style="endArrow=none;html=1;rounded=0;" edge="1" parent="1">
          <mxGeometry relative="1" as="geometry">
            <mxPoint x="320" y="560" as="sourcePoint" />
            <mxPoint x="670" y="560" as="targetPoint" />
          </mxGeometry>
        </mxCell>
        <mxCell id="4B6Cr-e_8SEEq3zloxiN-19" value="" style="endArrow=none;html=1;rounded=0;entryX=0.691;entryY=0.455;entryDx=0;entryDy=0;entryPerimeter=0;" edge="1" parent="1" target="4B6Cr-e_8SEEq3zloxiN-12">
          <mxGeometry relative="1" as="geometry">
            <mxPoint x="670" y="560" as="sourcePoint" />
            <mxPoint x="670" y="530" as="targetPoint" />
          </mxGeometry>
        </mxCell>
        <mxCell id="4B6Cr-e_8SEEq3zloxiN-20" value="" style="endArrow=none;html=1;rounded=0;exitX=0.182;exitY=0.455;exitDx=0;exitDy=0;exitPerimeter=0;" edge="1" parent="1" source="4B6Cr-e_8SEEq3zloxiN-12">
          <mxGeometry relative="1" as="geometry">
            <mxPoint x="400" y="370" as="sourcePoint" />
            <mxPoint x="530" y="560" as="targetPoint" />
          </mxGeometry>
        </mxCell>
        <mxCell id="4B6Cr-e_8SEEq3zloxiN-21" value="" style="endArrow=none;html=1;rounded=0;entryX=0.381;entryY=0.892;entryDx=0;entryDy=0;entryPerimeter=0;" edge="1" parent="1" target="4B6Cr-e_8SEEq3zloxiN-8">
          <mxGeometry relative="1" as="geometry">
            <mxPoint x="320" y="560" as="sourcePoint" />
            <mxPoint x="560" y="370" as="targetPoint" />
          </mxGeometry>
        </mxCell>
        <mxCell id="4B6Cr-e_8SEEq3zloxiN-22" value="SSH&lt;br&gt;-p22&lt;br&gt;HTTP&lt;br&gt;-p80" style="text;html=1;resizable=0;autosize=1;align=center;verticalAlign=middle;points=[];fillColor=none;strokeColor=none;rounded=0;" vertex="1" parent="1">
          <mxGeometry x="100" y="345" width="50" height="60" as="geometry" />
        </mxCell>
        <mxCell id="4B6Cr-e_8SEEq3zloxiN-23" value="RedTeam-Security Group" style="text;html=1;resizable=0;autosize=1;align=center;verticalAlign=middle;points=[];fillColor=none;strokeColor=none;rounded=0;" vertex="1" parent="1">
          <mxGeometry x="255" y="220" width="150" height="20" as="geometry" />
        </mxCell>
        <mxCell id="4B6Cr-e_8SEEq3zloxiN-24" value="RedTeamNet" style="text;html=1;resizable=0;autosize=1;align=center;verticalAlign=middle;points=[];fillColor=none;strokeColor=none;rounded=0;" vertex="1" parent="1">
          <mxGeometry x="480" y="140" width="90" height="20" as="geometry" />
        </mxCell>
        <mxCell id="4B6Cr-e_8SEEq3zloxiN-25" value="RedTeamNet Virtural Network: 10.0.0.0/16" style="text;html=1;resizable=0;autosize=1;align=center;verticalAlign=middle;points=[];fillColor=none;strokeColor=none;rounded=0;" vertex="1" parent="1">
          <mxGeometry x="400" y="170" width="240" height="20" as="geometry" />
        </mxCell>
        <mxCell id="4B6Cr-e_8SEEq3zloxiN-26" value="RedTeamNet Subnet: 10.0.0.0/24" style="text;html=1;resizable=0;autosize=1;align=center;verticalAlign=middle;points=[];fillColor=none;strokeColor=none;rounded=0;" vertex="1" parent="1">
          <mxGeometry x="425" y="190" width="190" height="20" as="geometry" />
        </mxCell>
        <mxCell id="4B6Cr-e_8SEEq3zloxiN-27" value="RedTeam Load Balancer&lt;br&gt;47.42.127.210" style="text;html=1;resizable=0;autosize=1;align=center;verticalAlign=middle;points=[];fillColor=none;strokeColor=none;rounded=0;" vertex="1" parent="1">
          <mxGeometry x="542.5" y="260" width="150" height="30" as="geometry" />
        </mxCell>
        <mxCell id="4B6Cr-e_8SEEq3zloxiN-28" value="HTTP (p80)" style="text;html=1;resizable=0;autosize=1;align=center;verticalAlign=middle;points=[];fillColor=none;strokeColor=none;rounded=0;" vertex="1" parent="1">
          <mxGeometry x="425" y="285" width="80" height="20" as="geometry" />
        </mxCell>
        <mxCell id="4B6Cr-e_8SEEq3zloxiN-29" value="SSH" style="text;html=1;resizable=0;autosize=1;align=center;verticalAlign=middle;points=[];fillColor=none;strokeColor=none;rounded=0;" vertex="1" parent="1">
          <mxGeometry x="330" y="350" width="40" height="20" as="geometry" />
        </mxCell>
        <mxCell id="4B6Cr-e_8SEEq3zloxiN-30" value="SSH" style="text;html=1;resizable=0;autosize=1;align=center;verticalAlign=middle;points=[];fillColor=none;strokeColor=none;rounded=0;" vertex="1" parent="1">
          <mxGeometry x="405" y="540" width="40" height="20" as="geometry" />
        </mxCell>
        <mxCell id="4B6Cr-e_8SEEq3zloxiN-31" value="Web-1&lt;br&gt;10.0.0.5" style="text;html=1;resizable=0;autosize=1;align=center;verticalAlign=middle;points=[];fillColor=none;strokeColor=none;rounded=0;" vertex="1" parent="1">
          <mxGeometry x="505" y="560" width="60" height="30" as="geometry" />
        </mxCell>
        <mxCell id="4B6Cr-e_8SEEq3zloxiN-32" value="Web-2&lt;br&gt;10.0.0.6" style="text;html=1;resizable=0;autosize=1;align=center;verticalAlign=middle;points=[];fillColor=none;strokeColor=none;rounded=0;" vertex="1" parent="1">
          <mxGeometry x="635" y="560" width="60" height="30" as="geometry" />
        </mxCell>
        <mxCell id="4B6Cr-e_8SEEq3zloxiN-33" value="Red-Team Load Balancer" style="text;html=1;resizable=0;autosize=1;align=center;verticalAlign=middle;points=[];fillColor=none;strokeColor=none;rounded=0;" vertex="1" parent="1">
          <mxGeometry x="540" y="600" width="150" height="20" as="geometry" />
        </mxCell>
        <mxCell id="4B6Cr-e_8SEEq3zloxiN-34" value="Jump-Box-Provisioner&lt;br&gt;20.124.201.165&lt;br&gt;10.0.0.4" style="text;html=1;resizable=0;autosize=1;align=center;verticalAlign=middle;points=[];fillColor=none;strokeColor=none;rounded=0;" vertex="1" parent="1">
          <mxGeometry x="265" y="490" width="130" height="50" as="geometry" />
        </mxCell>
        <mxCell id="4B6Cr-e_8SEEq3zloxiN-35" value="" style="fontColor=#0066CC;verticalAlign=top;verticalLabelPosition=bottom;labelPosition=center;align=center;html=1;outlineConnect=0;fillColor=#CCCCCC;strokeColor=#6881B3;gradientColor=none;gradientDirection=north;strokeWidth=2;shape=mxgraph.networks.server;" vertex="1" parent="1">
          <mxGeometry x="80" y="930" width="40" height="60" as="geometry" />
        </mxCell>
        <mxCell id="4B6Cr-e_8SEEq3zloxiN-36" value="&lt;font style=&quot;font-size: 14px&quot;&gt;ELK Server&lt;br&gt;10.2.0.4&lt;br&gt;&lt;/font&gt;" style="text;html=1;align=center;verticalAlign=middle;resizable=0;points=[];autosize=1;strokeColor=none;fillColor=none;" vertex="1" parent="1">
          <mxGeometry x="110" y="890" width="90" height="40" as="geometry" />
        </mxCell>
        <mxCell id="4B6Cr-e_8SEEq3zloxiN-37" style="edgeStyle=orthogonalEdgeStyle;rounded=0;orthogonalLoop=1;jettySize=auto;html=1;" edge="1" parent="1" source="4B6Cr-e_8SEEq3zloxiN-38" target="4B6Cr-e_8SEEq3zloxiN-35">
          <mxGeometry relative="1" as="geometry" />
        </mxCell>
        <mxCell id="4B6Cr-e_8SEEq3zloxiN-38" value="" style="fontColor=#0066CC;verticalAlign=top;verticalLabelPosition=bottom;labelPosition=center;align=center;html=1;outlineConnect=0;fillColor=#CCCCCC;strokeColor=#6881B3;gradientColor=none;gradientDirection=north;strokeWidth=2;shape=mxgraph.networks.firewall;" vertex="1" parent="1">
          <mxGeometry x="75" y="820" width="50" height="50" as="geometry" />
        </mxCell>
      </root>
    </mxGraphModel>
  </diagram>
</mxfile>
